<svg width="25" height="29" viewBox="0 0 25 29" fill="none" xmlns="http://www.w3.org/2000/svg">
<path d="M10.7695 0C9.84965 0 8.96751 0.368596 8.31711 1.0247C7.66671 1.68081 7.30132 2.57068 7.30132 3.49855V17.4928C7.30132 18.4206 7.66671 19.3105 8.31711 19.9666C8.96751 20.6227 9.84965 20.9913 10.7695 20.9913H21.1738C22.0936 20.9913 22.9758 20.6227 23.6262 19.9666C24.2766 19.3105 24.642 18.4206 24.642 17.4928V7.7213C24.6418 6.79351 24.2763 5.90378 23.6258 5.24783L19.4398 1.02508C18.7895 0.368924 17.9075 0.000198149 16.9878 0H10.7695Z" fill="#0E64BC"/>
<path d="M0 10.0393C0 9.07111 0.384622 8.14255 1.06925 7.45791C1.75389 6.77328 2.68245 6.38866 3.65066 6.38866V24.642H18.2533C18.2533 25.6102 17.8687 26.5387 17.1841 27.2234C16.4994 27.908 15.5709 28.2926 14.6026 28.2926H3.65066C2.68245 28.2926 1.75389 27.908 1.06925 27.2234C0.384622 26.5387 0 25.6102 0 24.642V10.0393Z" fill="#3A3A3A"/>
</svg>
